P1
# Created by GIMP version 2.10.34 PNM plug-in
6 3
111100000000000000