P3
# Created by GIMP version 2.10.34 PNM plug-in
6 3
255
255
1
1
255
3
3
2
10
255
1
9
255
0
255
23
0
255
23
0
255
23
0
255
23
0
255
23
0
255
23
0
255
23
0
255
23
0
255
23
0
255
23
0
255
23
0
255
23
0
255
23
0
255
23
